<mxfile host="app.diagrams.net" modified="2024-06-03T02:24:40.101Z" agent="Mozilla/5.0 (Windows NT 10.0; Win64; x64) AppleWebKit/537.36 (KHTML, like Gecko) Chrome/125.0.0.0 Safari/537.36" etag="T-lGoHypvVDyN0u4EKZp" version="24.4.9" type="github">
  <diagram name="Page-1" id="c7558073-3199-34d8-9f00-42111426c3f3">
    <mxGraphModel dx="2034" dy="757" grid="1" gridSize="10" guides="1" tooltips="1" connect="1" arrows="1" fold="1" page="1" pageScale="1" pageWidth="826" pageHeight="1169" background="none" math="0" shadow="0">
      <root>
        <mxCell id="0" />
        <mxCell id="1" parent="0" />
        <mxCell id="10" value="&lt;p style=&quot;margin: 0px; margin-top: 4px; text-align: center; text-decoration: underline;&quot;&gt;&lt;/p&gt;&lt;p style=&quot;margin: 0px; margin-left: 8px;&quot;&gt;&lt;br&gt;&lt;/p&gt;&lt;p style=&quot;margin: 0px; margin-left: 8px;&quot;&gt;空调外界系统&lt;/p&gt;&lt;p style=&quot;margin: 0px; margin-left: 8px;&quot;&gt;输入&lt;/p&gt;" style="verticalAlign=middle;align=center;overflow=fill;fontSize=12;fontFamily=Helvetica;html=1;rounded=1;fontStyle=1;strokeWidth=3;fillColor=#E6FFCC" parent="1" vertex="1">
          <mxGeometry x="-60" y="513.75" width="160" height="79.25" as="geometry" />
        </mxCell>
        <mxCell id="13" value="根据最小二乘法求解目标函数极小值得到参数辨识结果" style="whiteSpace=wrap;align=center;verticalAlign=middle;fontStyle=1;strokeWidth=3;fillColor=#FFFFCC" parent="1" vertex="1">
          <mxGeometry x="580" y="450" width="190" height="280" as="geometry" />
        </mxCell>
        <mxCell id="11" value="&lt;p style=&quot;margin: 0px; margin-top: 4px; text-align: center; text-decoration: underline;&quot;&gt;&lt;/p&gt;&lt;p style=&quot;margin: 0px; margin-left: 8px;&quot;&gt;&lt;br&gt;&lt;/p&gt;&lt;p style=&quot;margin: 0px; margin-left: 8px;&quot;&gt;&lt;br&gt;&lt;/p&gt;&lt;p style=&quot;margin: 0px; margin-left: 8px;&quot;&gt;&lt;br&gt;&lt;/p&gt;&lt;p style=&quot;margin: 0px; margin-left: 8px;&quot;&gt;基于微分方程的&lt;/p&gt;&lt;p style=&quot;margin: 0px; margin-left: 8px;&quot;&gt;物理模型估算&lt;/p&gt;&lt;p style=&quot;margin: 0px; margin-left: 8px;&quot;&gt;的蒸发器温度&lt;/p&gt;" style="verticalAlign=middle;align=center;overflow=fill;fontSize=12;fontFamily=Helvetica;html=1;rounded=1;fontStyle=1;strokeWidth=3;fillColor=#E6FFCC" parent="1" vertex="1">
          <mxGeometry x="343" y="509" width="110" height="171" as="geometry" />
        </mxCell>
        <mxCell id="83" value="" style="edgeStyle=elbowEdgeStyle;elbow=horizontal;strokeColor=#990000;strokeWidth=2" parent="1" edge="1">
          <mxGeometry width="100" height="100" relative="1" as="geometry">
            <mxPoint x="452" y="554" as="sourcePoint" />
            <mxPoint x="580" y="554.25" as="targetPoint" />
          </mxGeometry>
        </mxCell>
        <mxCell id="85" value="" style="edgeStyle=elbowEdgeStyle;elbow=horizontal;strokeColor=#990000;strokeWidth=2;entryX=0.317;entryY=0.52;entryDx=0;entryDy=0;entryPerimeter=0;" parent="1" edge="1" target="47FUqNn5VWWqSbPYocdL-110">
          <mxGeometry width="100" height="100" relative="1" as="geometry">
            <mxPoint x="100" y="555" as="sourcePoint" />
            <mxPoint x="230" y="556" as="targetPoint" />
            <Array as="points">
              <mxPoint x="202" y="551.99" />
            </Array>
          </mxGeometry>
        </mxCell>
        <mxCell id="47FUqNn5VWWqSbPYocdL-98" style="edgeStyle=orthogonalEdgeStyle;rounded=1;orthogonalLoop=1;jettySize=auto;html=1;entryX=-0.009;entryY=0.925;entryDx=0;entryDy=0;entryPerimeter=0;strokeColor=#990000;strokeWidth=2;exitX=1;exitY=0.5;exitDx=0;exitDy=0;align=center;verticalAlign=middle;fontFamily=Helvetica;fontSize=11;fontColor=default;labelBackgroundColor=default;endArrow=classic;" parent="1" edge="1" target="13" source="47FUqNn5VWWqSbPYocdL-102">
          <mxGeometry relative="1" as="geometry">
            <mxPoint x="452" y="708" as="sourcePoint" />
            <mxPoint x="532.3799999999999" y="708.1999999999998" as="targetPoint" />
          </mxGeometry>
        </mxCell>
        <mxCell id="47FUqNn5VWWqSbPYocdL-102" value="&lt;p style=&quot;margin: 0px; margin-top: 4px; text-align: center; text-decoration: underline;&quot;&gt;&lt;/p&gt;&lt;p style=&quot;margin: 0px; margin-left: 8px;&quot;&gt;&lt;br&gt;&lt;/p&gt;&lt;p style=&quot;margin: 0px; margin-left: 8px;&quot;&gt;&lt;br&gt;&lt;/p&gt;&lt;p style=&quot;margin: 0px; margin-left: 8px;&quot;&gt;传感器实测的蒸发器温度&lt;/p&gt;" style="verticalAlign=middle;align=center;overflow=fill;fontSize=12;fontFamily=Helvetica;html=1;rounded=1;fontStyle=1;strokeWidth=3;fillColor=#E6FFCC" parent="1" vertex="1">
          <mxGeometry x="-48" y="670" width="200" height="79.25" as="geometry" />
        </mxCell>
        <mxCell id="47FUqNn5VWWqSbPYocdL-117" value="" style="edgeStyle=orthogonalEdgeStyle;rounded=0;orthogonalLoop=1;jettySize=auto;html=1;exitX=0.201;exitY=0.419;exitDx=0;exitDy=0;exitPerimeter=0;entryX=-0.013;entryY=0.538;entryDx=0;entryDy=0;entryPerimeter=0;" parent="1" source="47FUqNn5VWWqSbPYocdL-110" edge="1">
          <mxGeometry relative="1" as="geometry">
            <mxPoint x="342.03" y="540.6909999999998" as="targetPoint" />
            <mxPoint x="226.37999999999965" y="535.4799999999998" as="sourcePoint" />
            <Array as="points">
              <mxPoint x="226" y="540.3309999999999" />
            </Array>
          </mxGeometry>
        </mxCell>
        <mxCell id="47FUqNn5VWWqSbPYocdL-110" value="" style="line;strokeWidth=2;direction=south;html=1;" parent="1" vertex="1">
          <mxGeometry x="200" y="516.37" width="10" height="121" as="geometry" />
        </mxCell>
        <mxCell id="47FUqNn5VWWqSbPYocdL-122" value="" style="edgeStyle=orthogonalEdgeStyle;rounded=0;orthogonalLoop=1;jettySize=auto;html=1;exitX=0.688;exitY=0.497;exitDx=0;exitDy=0;exitPerimeter=0;" parent="1" edge="1" source="47FUqNn5VWWqSbPYocdL-110">
          <mxGeometry relative="1" as="geometry">
            <mxPoint x="224.97000000000003" y="599.29" as="sourcePoint" />
            <mxPoint x="343.5" y="599.77" as="targetPoint" />
            <Array as="points" />
          </mxGeometry>
        </mxCell>
        <mxCell id="qJiXg6hsotH6v4dOK1u3-86" value="" style="edgeStyle=elbowEdgeStyle;elbow=horizontal;strokeColor=#990000;strokeWidth=2;exitX=1.001;exitY=0.578;exitDx=0;exitDy=0;exitPerimeter=0;" parent="1" edge="1" source="13">
          <mxGeometry width="100" height="100" relative="1" as="geometry">
            <mxPoint x="800" y="611.75" as="sourcePoint" />
            <mxPoint x="904.5" y="612" as="targetPoint" />
          </mxGeometry>
        </mxCell>
        <mxCell id="qJiXg6hsotH6v4dOK1u3-87" value="参数辨识结果" style="rounded=1;whiteSpace=wrap;html=1;fillColor=#E6FFCC;fontStyle=1;strokeWidth=3;" parent="1" vertex="1">
          <mxGeometry x="905" y="583" width="120" height="60" as="geometry" />
        </mxCell>
        <mxCell id="Fq9NYvANG719HLQ4oi_o-88" value="" style="shape=image;verticalLabelPosition=bottom;labelBackgroundColor=default;verticalAlign=top;aspect=fixed;imageAspect=0;image=data:image/png,iVBORw0KGgoAAAANSUhEUgAAABsAAAAoCAIAAACAWBYBAAABWklEQVRIDe2UW5HFIAyGfwtowAIekIAGLOAAB3WAAhRgAAM4wAM7s5mhPYHe5vRhZ7Z9IrePkCZBe/rD08D2Ep8p6VvHv1/HnDMufLXW47es/zqEAMBaSzExRgBaa4qn+5RSx7jWNlPonJNS9hSccwC89x1B93Vx77DmqJQKIXQ/pRSAGGPXaK23Dl3PDiuRG35r2lNm1gNxTkwpAZBSHkTumeZE7/3Fqo3cOdEYA+BK1a4ShRAAcs5jwKlmkmMpBYAQ4jR46jAhUqv33p6GHSgnxLG3D+JH04RIvZ1SGr1J470nHwDjXHJirZXWRSllJNZalVJCCLrPGDP2LCfSkwFMcyRr7wHvvTGGXfxBtNZu9xmDUg9YaxmCiR9EZmPisixsdzAHEm8QaTRPd8dXRFaW2zlS59MOLqUYY6ZTcCPH1ppzjkaeredtQe8Rt5F755e4V5l7+v9Zxx9qGq0S/jvjWQAAAABJRU5ErkJggg==;" vertex="1" parent="1">
          <mxGeometry x="163.5" y="670" width="20.25" height="30" as="geometry" />
        </mxCell>
        <mxCell id="Fq9NYvANG719HLQ4oi_o-89" value="" style="shape=image;verticalLabelPosition=bottom;labelBackgroundColor=default;verticalAlign=top;aspect=fixed;imageAspect=0;image=data:image/png,iVBORw0KGgoAAAANSUhEUgAAABwAAAAmCAIAAABYjmwIAAABHUlEQVRIDe2UQRHDIBBF1wIa1gIekBANWMABDuIAIRjAAA7w8HvYmR2mtAWm6aWTnHZIePx9EAg/eOgHTNzQ663eTv/DKQ2P9OWc0zfOuadmJ7tfSjHG6PxSisyvtco4M9da96AAQggK7SdL2JRSPyj1JCmAUopCNWlrjYiYeSQCaxcKMws3hCCUlBIRvYy5Co0xClSjWWu1HsPO2wdQa+0NiJAY44iTkSUoAGutGvDeG2Naa99Cz/MUqNC99++Iq06fDBDReDb7NVbb7w18jrmRFIAayDn3ucZ6IykAZh7/9K+gclqnMeftO+fkkOeciWgl5hJUj70x5vOmq4eJU703j+NYJM6T6uJbxSTpFks/vqGq4rLidnqZSgU9ANXwgJOhS4pNAAAAAElFTkSuQmCC;" vertex="1" parent="1">
          <mxGeometry x="480" y="670" width="28" height="38" as="geometry" />
        </mxCell>
        <mxCell id="Fq9NYvANG719HLQ4oi_o-93" value="" style="shape=image;verticalLabelPosition=bottom;labelBackgroundColor=default;verticalAlign=top;aspect=fixed;imageAspect=0;image=data:image/png,iVBORw0KGgoAAAANSUhEUgAAABYAAAAxCAIAAABRf87iAAABKklEQVRIDe2UUZXEIAxFYyEasICHaomUcVAHKIgCDGAAB/GQObs582gpu/Mxf3PKV5rzckkeUPKPF31M8BsxPLy9uL0YDozo++9F711EUkr0u3LOqjoMOERrL0opUfl4PMys1hqfS8oCoapRICLYLDI5Z2QQzAgzY2YiYmYzG7pg0Kx3v/z4ROTawo/utQBFcKKiBSJqrUHUWnsRTvoQnFJwkZlR7+7I09tBMAX2nIL3duaco6aUcuwiDCai4xlBcBoEe9ZaoTgaMaFDMxC9dyBQ7+77vkd+OmZoBgJXcPIM0y2nmO/FtQtw/2phRuBRoclt24K7fB2zF+6O16GqZhZnzMxLF7HN8CJSqorhU0oi0nuHehnMiKXo/+SNGP7cXtxeDAdG9DX34gmMKmeCjA/hLwAAAABJRU5ErkJggg==;" vertex="1" parent="1">
          <mxGeometry x="840" y="560.72" width="20" height="44.55" as="geometry" />
        </mxCell>
        <mxCell id="Fq9NYvANG719HLQ4oi_o-94" value="" style="shape=image;verticalLabelPosition=bottom;labelBackgroundColor=default;verticalAlign=top;aspect=fixed;imageAspect=0;image=data:image/png,iVBORw0KGgoAAAANSUhEUgAAACkAAAAqCAIAAAChluUPAAABi0lEQVRYCe1VWbHEIBBsC2jAQjwgAQ2xEAc4wEEUoAADawAHeODVq6kdqJCb2uSH/OyEpaczPRfSew/eo06d+3nxu+Zd86cU6LX2lNKZZ09zrTWOnmmasrOL1h63lFII4b0nn8MwAOBX+jLn3EXGfH2TO8YIwFpLd+kVyPeNMQBCCNnZRSv7WgCdc1JKPnTOARiGgU+89+UFPj9vbHIvXFCULdldOEzp9P5WSgGY57l2cfvkbNxU7y3ZrT/xFPfn8wHQmN2b3NZaAFrrGk91YIyp/zo8ORX3OI5lv5VOf84tpSynSsndYh/HXU+VFr4Se8xNU0UpVcLIJsEBcL6pFQHEGI0xQggqlBhjDT/mnqYJwDiONTilRKXA3DFGGvtKKZr8BOfZXDo54A4h0Levxp1SqmuNQucdQ/25Ct/jDiGUK3QVv8XN6+5/dgKr2D3uUp8tu3N/laF8P6H5Vp3zxuPFX7dZU765v4UQVNjc3zwHuVrrcmvi/sp887dz3xSuAdY1bxDvJvRNzf8ASWGv7bbWeiAAAAAASUVORK5CYII=;" vertex="1" parent="1">
          <mxGeometry x="281.38" y="508" width="23.43" height="24" as="geometry" />
        </mxCell>
        <mxCell id="Fq9NYvANG719HLQ4oi_o-95" value="" style="shape=image;verticalLabelPosition=bottom;labelBackgroundColor=default;verticalAlign=top;aspect=fixed;imageAspect=0;image=data:image/png,iVBORw0KGgoAAAANSUhEUgAAADUAAAAvCAIAAADMyRXaAAAB2klEQVRYCe1XUY3DMAx9FIohFMqhEIqhFMqgDMogCIIgBEYgDMbBp9OTfFayqovS3u2k7Kt1Yvvl+dnNIJ/9w2fDk46vrUCdv85fGwNt3l1/nb82Btq8u/46f20MtHn/f/3N84yz37qubTQdep/z55wbhiHGyBjjOALQV6IPIRxmaFs4wfd8PgHs+84sfAV+vLZtA5BSaoNx6P2T6eWWEIJzTpdCCADGcVRLjNFuUPtVDyf4sjRk6z61ZelEKv9/TNMEwHtfBrrJUscf+/g+tZWHrMD3eDwA3Kq2Jnz7vgOY57mMcp+lgr9lWeysuQRTSgnAtm1H0SrwOefsZD6KWGW/DF85matwHG2+DB8n8zRNR5k4etjgWi9KQkeSvjKOdaFjGfzd+q7rCmBZljKEiLD0XIox2p0c6ToySZiek5v1PGXwt/CllIZhAKBxbSAi0BuDiJAnWrz3yh+9bJwL8PHEesMqIbJMFjExkZXb8dnEL59tcbmBmCiGv8dH/uxH77P4yzpA9UfEVJj2x/eVxOj4Av29rGlmtCW2xRWRrGHZOvoRz1azsNX3q9JfLXaYWbZEhASzw7z3PIxewq2jFQkjvzVfFMTvP3R8bZx3/jp/bQy0eXf9tfH3BSMzSXUqwJGFAAAAAElFTkSuQmCC;" vertex="1" parent="1">
          <mxGeometry x="278.43" y="544" width="29.32" height="26" as="geometry" />
        </mxCell>
        <mxCell id="Fq9NYvANG719HLQ4oi_o-98" value="" style="shape=image;verticalLabelPosition=bottom;labelBackgroundColor=default;verticalAlign=top;aspect=fixed;imageAspect=0;image=data:image/png,iVBORw0KGgoAAAANSUhEUgAAABoAAAAiCAIAAADOAV5ZAAABPklEQVRIDe1UXZHEIAz+LKAhFvAQCdWAhTqoAxxUAQowUAM4iAdubjOboXQ6tDt7T1eeaALfT5KC+tWFr6LVB+7zej61+8vaee/xXqWUloqZ3xmklGq9MMYiQkR6LcbYwomIkq3rqvFLnWXmEAIA730LV2tlZiKy4CU44NeLauz8EtE0TTfgtm0DUEqZ5xlA61dEushYXYzROVdrTSl1fjWybdsNddM0MbNecM6pUv1clgXYCdp9GEm7IaJlWTSiDTG//Frt4QFcKQVAzlnvdH4BGJMeGMCt6wpAREyC+c05a8ctNR7jEEI3a+Y3xtgxjeG89yGElt/8HpkGcMexUlz1S0Qd0wBOhVgfTKP6BWC/qqVOWyEi+mDYWNgdpQHQDrBmT+Hax+co0L2WEdjmFM5O3No8cLfKtTv8r2r3A0WMXeVmSGneAAAAAElFTkSuQmCC;" vertex="1" parent="1">
          <mxGeometry x="281.38" y="573" width="15.29" height="20" as="geometry" />
        </mxCell>
        <mxCell id="Fq9NYvANG719HLQ4oi_o-110" value="" style="edgeStyle=orthogonalEdgeStyle;rounded=0;orthogonalLoop=1;jettySize=auto;html=1;exitX=0.688;exitY=0.497;exitDx=0;exitDy=0;exitPerimeter=0;" edge="1" parent="1">
          <mxGeometry relative="1" as="geometry">
            <mxPoint x="204.5" y="570.4" as="sourcePoint" />
            <mxPoint x="343" y="570.17" as="targetPoint" />
            <Array as="points" />
          </mxGeometry>
        </mxCell>
        <mxCell id="Fq9NYvANG719HLQ4oi_o-103" value="" style="endArrow=classic;html=1;rounded=0;" edge="1" parent="1">
          <mxGeometry width="50" height="50" relative="1" as="geometry">
            <mxPoint x="220" y="634" as="sourcePoint" />
            <mxPoint x="344" y="634.37" as="targetPoint" />
          </mxGeometry>
        </mxCell>
        <mxCell id="Fq9NYvANG719HLQ4oi_o-107" value="" style="endArrow=none;html=1;rounded=0;" edge="1" parent="1">
          <mxGeometry width="50" height="50" relative="1" as="geometry">
            <mxPoint x="220.001754" y="708.87" as="sourcePoint" />
            <mxPoint x="220.4262" y="634.37" as="targetPoint" />
          </mxGeometry>
        </mxCell>
        <mxCell id="Fq9NYvANG719HLQ4oi_o-106" value="" style="endArrow=classic;html=1;rounded=0;exitX=1.027;exitY=0.41;exitDx=0;exitDy=0;exitPerimeter=0;entryX=0.015;entryY=0.878;entryDx=0;entryDy=0;entryPerimeter=0;" edge="1" parent="1">
          <mxGeometry width="50" height="50" relative="1" as="geometry">
            <mxPoint x="294.90391999999997" y="659.3736" as="sourcePoint" />
            <mxPoint x="343.6500000000001" y="659.138" as="targetPoint" />
          </mxGeometry>
        </mxCell>
        <mxCell id="Fq9NYvANG719HLQ4oi_o-108" value="delay" style="whiteSpace=wrap;html=1;aspect=fixed;" vertex="1" parent="1">
          <mxGeometry x="260" y="645.04" width="34.96" height="34.96" as="geometry" />
        </mxCell>
        <mxCell id="Fq9NYvANG719HLQ4oi_o-111" value="" style="endArrow=classic;html=1;rounded=0;" edge="1" parent="1">
          <mxGeometry width="50" height="50" relative="1" as="geometry">
            <mxPoint x="220" y="660" as="sourcePoint" />
            <mxPoint x="260" y="660" as="targetPoint" />
          </mxGeometry>
        </mxCell>
        <mxCell id="Fq9NYvANG719HLQ4oi_o-113" value="" style="shape=image;verticalLabelPosition=bottom;labelBackgroundColor=default;verticalAlign=top;aspect=fixed;imageAspect=0;image=data:image/png,iVBORw0KGgoAAAANSUhEUgAAAG0AAAAlCAIAAADHkfAAAAADfklEQVRoBe2Z4dGkIAyG0wI10AI9UII1bAt2QAd2QAVWQAPbgB3QAzfzvTMZBmLc9eM8b0Z/7ETQhDyEEFkqzzWCAI1Q8ugoD8cxQfBwfDiOITBGyxOPD8cxBMZoeeLx4TiGwBgtTzw+HMcQGKPloniMMTrnlmUZM+prtSzL4pyLMSpmZY7GGDq61nVV9HJXztl7b63Vx8HP/0Mh5xxCIBKYxBittd77nLM4QuGdbduIyDm3bVspJecMpHg/52ytJaI9jbWZnLMxxjn3ycPNi7XRuusvyTFGjh7RRM7ZOWeMEX0ROK7rSkTv9xvqcOu9Z+2IL75VBMVwKeX1eu3NR4yRiKZpUpT3XXvR1D9Zt6SUrLXOOe+9PnkcFvXrkAWO8zy/Xi9+dJ5nIprnmVtCCPUD3N4IYBFCaNpxizFZa8Xec40nOCLtpJRKKSklnWMpBSb6HCVwbHzALH2YDet3leWfc0Ywfhtxtf5ePsGxVvIJR2S5fvqPOWKKkCtrq7r8fr/3Fia8hdr6Fwq51xijm+h7L+BYSpmmqc57GMYBR0xRj7/3oWmBS3uLupSCMOcsXL+OTFJn5LpXka/hKLp2wHFZFiL6JBs27gET8k7ThVsi2os4caCikqbxGo6IrWaaDzgihk/UzzpHcSgMBUaVOeAnG+G+HLFXiKuv8aG51TnqEYc6rlHY39a5VZeV9FKr/WSf4W39i3hEQS7W97V5UdY5KhHHXwGiWr3xpvHYV+C6G3WvzhERJ34YoOqsy9VarS7flCP2TWVRrOsKXkRkra2XP9rFqhMl0V4NgLqyL3R1gui9hqMYXto+45wjoj2X4DC2IGzrdY2pZMBmk0FNzpgwAfWUcNehcA1H0bVdjqBORGI8opf38ZRSU8Qg6JpkDBDIgMaY7edqjqTAcdu2lJJyviIy/Q1H/sQiInEZsUVxpmWOSFK8CfYo7c/FqkVB+S5clgUp0nvf1Dd87jJN07dReY5j4yx7bYzpB3D+u7BnhFg73Ar0c4pe7e9bznH8yi5M9LlOjkddNRKcHvzQgHOzOm/qmm/eu20bjlP7cY7h2KxNNsOGxRKHH/svBD7HFcPiDEdsFNM05Z8rhGCtFbXjON0591/8r6BMJ/5XUA72z3AspUAvysYQwmG44X+uPq0oQ79P1yeDP8nxPk7eZCQPxzET8XB8OI4hMEbLH6qmeE6BYcOHAAAAAElFTkSuQmCC;" vertex="1" parent="1">
          <mxGeometry x="281.38" y="620" width="36.83" height="12.5" as="geometry" />
        </mxCell>
        <mxCell id="Fq9NYvANG719HLQ4oi_o-114" value="" style="shape=image;verticalLabelPosition=bottom;labelBackgroundColor=default;verticalAlign=top;aspect=fixed;imageAspect=0;image=data:image/png,iVBORw0KGgoAAAANSUhEUgAAAD4AAAAhCAIAAAAOI49dAAACzUlEQVRYCe1XW63kMAw1hWAwhXAIhMFQCmVQBmVQBEFQAiVQBuaQlfZIHl/n0c5dre7OavrluH6c2E7sUHnbj94WeflA/4ncfaL+/0V927YY47qu39jauq4xxm3berp/q2BEJKXEzAPfPUzK37aNmVNKIqJMJb5AfzwedPXN86zKPUJEQggxxqbLnlaTLyIxxhBCbeoLdGYOIez7DisxRiLSJTaWc276sMyeMytzn9ZAOJUndBEhIq1LLImeAsuyENF5ns6EW27bRkTLsji+LiFwJwSqAteu9p7Ics7MrNI5ZyKKMSpn33croHxHMDMR1flVsZTSnRCofCkFcXTen9CtaCkFG71T2VbxOA4iejwelmnpdV2JKIRgmXdolOtxHCrchY7YuBypWo/AhpvVsu978wrQs9SzCX5tuQsdbi4r2/nDhgdogEBPlFMfLLHzlJLKtKEj7662VGdAXEKHgM37wJr9dRc6KnJQstaopS+hI5lWxdL8+7Mcpe9Cn6bJXpSqf0mModfurcHzPIlomibLVLrWbRcMLrhByapFR4yhI5nNQ+zs1Mtb0OtmVBvqcQC9127u9+PaPvrMxTGthZwhEZmmCZkhInv311eY1Q0h9JqRWuv1stpyo2DmeR7U3HEcGK3O8xQRZrbViavJxsZCd2d0nme9fJFq27ytYikF+bRXk4d+nidi03MfY2RmjU1KyV3Sg0EAv3LOyJvdcyllEK/rQQBnXHtejR6T07jFDsYvTEFEVM/xOIU9y6gW99dH3aXJLXHONOTury4x9GoxKH9AAJytBxVGIdS19Br0lFJtQn0ooc4uN6kqKaXmTKZPjToQfwRdRJpxwpiKU+GyrFgdEUJo1icz915br0FHl0Wr2vc9xjjuL3hW30FPRHiD6kv0Uvc16CKCcsdQ/o1264KtSwQlpdRLo0oq8Rp0VfsXiA/0n8jCG0f9F9qXT5m/KNSsAAAAAElFTkSuQmCC;" vertex="1" parent="1">
          <mxGeometry x="307.75" y="642" width="20.2" height="10.75" as="geometry" />
        </mxCell>
        <mxCell id="Fq9NYvANG719HLQ4oi_o-116" value="" style="shape=image;verticalLabelPosition=bottom;labelBackgroundColor=default;verticalAlign=top;aspect=fixed;imageAspect=0;image=data:image/png,iVBORw0KGgoAAAANSUhEUgAAACAAAAAkCAIAAABnia+1AAABrklEQVRIDe1WQZHEMAwzBWMohXAIhGIIhTIIgzIIgiIIgRIIA3PwzZzu1GzanX5uX9c+dlInlmxZ6az4hx/5ML4/BLcKPxI9Et0qcHvgx0U5Zzk9tVZ3H7YQHHBLKTFGAKhqSsnMcOawaUqpp9i2jSghBGyt68ogFmaG3RACuMEUQhgJ3J1AInImOKMzRVX3fQciOwbC0YG77/vOJqZpQsK2bSISY8Rr/0usnDPjQ/CFwN2XZSFHztnM9PuhpgRqrfFka43xGwIgMhOi9XKdgeZ5ZtDd53lGOtoaO3B3aEKOZVn6fK6nacKZYTaMvyVwd3pumDbRe31YyrC4GDLzSyk8rarnAbBLegG567oyEYO5kGgYg4icVeIkB3dxACS+IIA+tVaqKSLDBeat7A3q7qqKDhgfCVAaSq61sl/eTEjBIRFocAeN+0KAi9ZjsVIR6d1CiXqCS9aDwMygSe96M2MTqsq66AISsN2+Pvffvy2tNX6I3hGISAiBjsL5GKOZ1VqhPl7pxoOA3aFejpTlc0HbmFlKiVONMZZSemisD4nOe38SeQhuZXwk+gcSfQG2mQbyadBsDwAAAABJRU5ErkJggg==;" vertex="1" parent="1">
          <mxGeometry x="500" y="522" width="19.56" height="22" as="geometry" />
        </mxCell>
      </root>
    </mxGraphModel>
  </diagram>
</mxfile>
